<svg width="361" height="314" viewBox="0 0 361 314" fill="none" xmlns="http://www.w3.org/2000/svg">
<g clip-path="url(#clip0_145_2)">
<path d="M182.51 301.378C177.852 305.771 173.685 309.769 169.519 313.767C168.609 313.296 167.698 312.826 166.788 312.355C166.589 310.167 166.224 307.98 166.218 305.792C166.156 282.94 165.869 260.085 166.4 237.241C166.491 233.318 168.918 228.5 172.328 225.704C198.002 204.656 224.202 184.017 250.21 163.229C252.937 161.048 255.489 158.728 260.05 154.82C252.297 149.32 244.687 144.372 237.725 138.899C215.482 121.413 193.422 103.777 171.466 86.0613C169.099 84.1515 166.373 81.3554 166.339 78.9478C165.972 52.7224 166.109 26.4925 166.109 0.76709C230.999 52.9107 295.887 105.053 362.084 158.247C303.7 204.782 243.351 252.883 182.51 301.378Z" fill="#F6E156"/>
<path d="M57.8034 314.767C57.8034 314.767 57.2403 314.299 56.9176 314.173C56.5948 314.047 56.3801 313.901 56.5506 313.653C56.4927 312.885 56.2644 312.365 56.0842 311.117C56.1274 234.175 56.0885 157.96 56.1358 81.7451C56.1526 54.7766 56.3796 27.8083 57.3992 0.781596C81.2067 0.73707 104.126 0.75079 127.083 1.49012C127.091 106.01 127.062 209.803 126.92 313.83C126.808 314.064 126.791 314.563 126.791 314.563C126.791 314.563 126.752 314.848 126.035 314.691C102.814 314.611 80.3085 314.689 57.8034 314.767Z" fill="#F8E256"/>
<path d="M108.32 261.059C108.143 261.007 108.052 260.797 108.01 260.248C108.175 260.24 108.29 260.57 108.32 261.059Z" fill="#6A6B39"/>
</g>
<defs>
<clipPath id="clip0_145_2">
<rect width="361" height="314" fill="white"/>
</clipPath>
</defs>
</svg>
